<?xml version="1.0" encoding="UTF-8" standalone="no"?>
<!DOCTYPE svg PUBLIC "-//W3C//DTD SVG 1.1//EN"
 "http://www.w3.org/Graphics/SVG/1.1/DTD/svg11.dtd">
<!-- Generated by graphviz version 3.0.0 (20220226.1711)
 -->
<!-- Title: G Pages: 1 -->
<svg width="1901pt" height="452pt"
 viewBox="0.00 0.00 1900.67 451.69" xmlns="http://www.w3.org/2000/svg" xmlns:xlink="http://www.w3.org/1999/xlink">
<g id="graph0" class="graph" transform="scale(1 1) rotate(0) translate(4 447.69)">
<title>G</title><style>.edge>path:hover{stroke-width:8}</style>
<polygon fill="white" stroke="transparent" points="-4,4 -4,-447.69 1896.67,-447.69 1896.67,4 -4,4"/>
<!-- csr -->
<g id="node1" class="node">
<title>csr</title><style>.edge>path:hover{stroke-width:8}</style>
<ellipse fill="#cc3333" stroke="black" cx="477.06" cy="-250.07" rx="27" ry="18"/>
<text text-anchor="middle" x="477.06" y="-247.57" font-family="Helvetica,sans-Serif" font-size="10.00" fill="#ffffff">csr</text>
</g>
<!-- dsbmm_bp_bp_sparse -->
<g id="node4" class="node">
<title>dsbmm_bp_bp_sparse</title><style>.edge>path:hover{stroke-width:8}</style>
<ellipse fill="#816e37" stroke="black" cx="112.06" cy="-93.21" rx="48.17" ry="21.43"/>
<text text-anchor="middle" x="112.06" y="-96.21" font-family="Helvetica,sans-Serif" font-size="10.00" fill="#ffffff">dsbmm_bp.</text>
<text text-anchor="middle" x="112.06" y="-85.21" font-family="Helvetica,sans-Serif" font-size="10.00" fill="#ffffff">bp_sparse</text>
</g>
<!-- csr&#45;&gt;dsbmm_bp_bp_sparse -->
<g id="edge1" class="edge">
<title>csr&#45;&gt;dsbmm_bp_bp_sparse</title><style>.edge>path:hover{stroke-width:8}</style>
<path fill="none" stroke="black" d="M452.71,-242.24C404.8,-228.75 301.62,-199.45 286.06,-192.85 235.29,-171.33 180.55,-138.55 146.3,-116.76"/>
<polygon fill="#cc3333" stroke="black" points="147.94,-113.65 137.63,-111.2 144.16,-119.55 147.94,-113.65"/>
</g>
<!-- dsbmm_bp_dsbmm_sparse -->
<g id="node6" class="node">
<title>dsbmm_bp_dsbmm_sparse</title><style>.edge>path:hover{stroke-width:8}</style>
<ellipse fill="#726231" stroke="black" cx="637.06" cy="-93.21" rx="58.88" ry="21.43"/>
<text text-anchor="middle" x="637.06" y="-96.21" font-family="Helvetica,sans-Serif" font-size="10.00" fill="#ffffff">dsbmm_bp.</text>
<text text-anchor="middle" x="637.06" y="-85.21" font-family="Helvetica,sans-Serif" font-size="10.00" fill="#ffffff">dsbmm_sparse</text>
</g>
<!-- csr&#45;&gt;dsbmm_bp_dsbmm_sparse -->
<g id="edge2" class="edge">
<title>csr&#45;&gt;dsbmm_bp_dsbmm_sparse</title><style>.edge>path:hover{stroke-width:8}</style>
<path fill="none" stroke="black" d="M497.2,-237.8C530.91,-218.81 595.92,-181.62 604.06,-172.64"/>
</g>
<!-- dsbmm_bp_apply -->
<g id="node2" class="node">
<title>dsbmm_bp_apply</title><style>.edge>path:hover{stroke-width:8}</style>
<ellipse fill="#968140" stroke="black" cx="1286.06" cy="-93.21" rx="53.64" ry="18"/>
<text text-anchor="middle" x="1286.06" y="-90.71" font-family="Helvetica,sans-Serif" font-size="10.00" fill="#000000">dsbmm_bp.apply</text>
</g>
<!-- dsbmm_bp_bp -->
<g id="node3" class="node">
<title>dsbmm_bp_bp</title><style>.edge>path:hover{stroke-width:8}</style>
<ellipse fill="#88743a" stroke="black" cx="224.06" cy="-93.21" rx="45.83" ry="18"/>
<text text-anchor="middle" x="224.06" y="-90.71" font-family="Helvetica,sans-Serif" font-size="10.00" fill="#ffffff">dsbmm_bp.bp</text>
</g>
<!-- dsbmm_bp_dsbmm -->
<g id="node5" class="node">
<title>dsbmm_bp_dsbmm</title><style>.edge>path:hover{stroke-width:8}</style>
<ellipse fill="#88743a" stroke="black" cx="501.06" cy="-93.21" rx="58.73" ry="18"/>
<text text-anchor="middle" x="501.06" y="-90.71" font-family="Helvetica,sans-Serif" font-size="10.00" fill="#ffffff">dsbmm_bp.dsbmm</text>
</g>
<!-- dsbmm_bp_em -->
<g id="node7" class="node">
<title>dsbmm_bp_em</title><style>.edge>path:hover{stroke-width:8}</style>
<ellipse fill="#6b5c2e" stroke="black" cx="1204.06" cy="-18" rx="47.86" ry="18"/>
<text text-anchor="middle" x="1204.06" y="-15.5" font-family="Helvetica,sans-Serif" font-size="10.00" fill="#ffffff">dsbmm_bp.em</text>
</g>
<!-- dsbmm_bp_numba_bp_methods -->
<g id="node8" class="node">
<title>dsbmm_bp_numba_bp_methods</title><style>.edge>path:hover{stroke-width:8}</style>
<ellipse fill="#b3994c" stroke="black" cx="906.06" cy="-93.21" rx="73.58" ry="21.43"/>
<text text-anchor="middle" x="906.06" y="-96.21" font-family="Helvetica,sans-Serif" font-size="10.00" fill="#000000">dsbmm_bp.</text>
<text text-anchor="middle" x="906.06" y="-85.21" font-family="Helvetica,sans-Serif" font-size="10.00" fill="#000000">numba_bp_methods</text>
</g>
<!-- dsbmm_bp_numba_dsbmm_methods -->
<g id="node9" class="node">
<title>dsbmm_bp_numba_dsbmm_methods</title><style>.edge>path:hover{stroke-width:8}</style>
<ellipse fill="#a48d46" stroke="black" cx="1087.06" cy="-93.21" rx="89.19" ry="21.43"/>
<text text-anchor="middle" x="1087.06" y="-96.21" font-family="Helvetica,sans-Serif" font-size="10.00" fill="#000000">dsbmm_bp.</text>
<text text-anchor="middle" x="1087.06" y="-85.21" font-family="Helvetica,sans-Serif" font-size="10.00" fill="#000000">numba_dsbmm_methods</text>
</g>
<!-- dsbmm_bp_simulation -->
<g id="node10" class="node">
<title>dsbmm_bp_simulation</title><style>.edge>path:hover{stroke-width:8}</style>
<ellipse fill="#88743a" stroke="black" cx="1444.06" cy="-93.21" rx="48.17" ry="21.43"/>
<text text-anchor="middle" x="1444.06" y="-96.21" font-family="Helvetica,sans-Serif" font-size="10.00" fill="#ffffff">dsbmm_bp.</text>
<text text-anchor="middle" x="1444.06" y="-85.21" font-family="Helvetica,sans-Serif" font-size="10.00" fill="#ffffff">simulation</text>
</g>
<!-- dsbmm_bp_utils -->
<g id="node11" class="node">
<title>dsbmm_bp_utils</title><style>.edge>path:hover{stroke-width:8}</style>
<ellipse fill="#a48d46" stroke="black" cx="764.06" cy="-93.21" rx="50.75" ry="18"/>
<text text-anchor="middle" x="764.06" y="-90.71" font-family="Helvetica,sans-Serif" font-size="10.00" fill="#000000">dsbmm_bp.utils</text>
</g>
<!-- matplotlib -->
<g id="node12" class="node">
<title>matplotlib</title><style>.edge>path:hover{stroke-width:8}</style>
<ellipse fill="#75bc2f" stroke="black" cx="1769.06" cy="-171.64" rx="34.96" ry="18"/>
<text text-anchor="middle" x="1769.06" y="-169.14" font-family="Helvetica,sans-Serif" font-size="10.00" fill="#000000">matplotlib</text>
</g>
<!-- matplotlib&#45;&gt;dsbmm_bp_em -->
<g id="edge3" class="edge">
<title>matplotlib&#45;&gt;dsbmm_bp_em</title><style>.edge>path:hover{stroke-width:8}</style>
<path fill="none" stroke="black" d="M1792.34,-158.05C1815.8,-143.62 1846.61,-118.77 1832.06,-94.21"/>
<path fill="none" stroke="black" d="M1832.06,-92.21C1803.16,-43.42 1411.65,-25.69 1261.82,-20.67"/>
<polygon fill="#75bc2f" stroke="black" points="1261.57,-17.16 1251.46,-20.33 1261.34,-24.16 1261.57,-17.16"/>
</g>
<!-- matplotlib_pyplot -->
<g id="node13" class="node">
<title>matplotlib_pyplot</title><style>.edge>path:hover{stroke-width:8}</style>
<ellipse fill="#7ab83d" stroke="black" cx="1832.06" cy="-250.07" rx="43.68" ry="21.43"/>
<text text-anchor="middle" x="1832.06" y="-253.07" font-family="Helvetica,sans-Serif" font-size="10.00" fill="#000000">matplotlib.</text>
<text text-anchor="middle" x="1832.06" y="-242.07" font-family="Helvetica,sans-Serif" font-size="10.00" fill="#000000">pyplot</text>
</g>
<!-- matplotlib_pyplot&#45;&gt;dsbmm_bp_em -->
<g id="edge4" class="edge">
<title>matplotlib_pyplot&#45;&gt;dsbmm_bp_em</title><style>.edge>path:hover{stroke-width:8}</style>
<path fill="none" stroke="black" d="M1828.95,-228.82C1827.28,-213.14 1826.55,-191.07 1832.06,-172.64"/>
</g>
<!-- matplotlib_pyplot&#45;&gt;matplotlib -->
<g id="edge5" class="edge">
<title>matplotlib_pyplot&#45;&gt;matplotlib</title><style>.edge>path:hover{stroke-width:8}</style>
<path fill="none" stroke="black" d="M1816.49,-230.17C1808.13,-220.03 1797.73,-207.42 1788.81,-196.59"/>
<polygon fill="#7ab83d" stroke="black" points="1791.39,-194.22 1782.33,-188.73 1785.99,-198.67 1791.39,-194.22"/>
</g>
<!-- numba -->
<g id="node14" class="node">
<title>numba</title><style>.edge>path:hover{stroke-width:8}</style>
<ellipse fill="#05db3b" stroke="black" cx="992.06" cy="-250.07" rx="27.16" ry="18"/>
<text text-anchor="middle" x="992.06" y="-247.57" font-family="Helvetica,sans-Serif" font-size="10.00" fill="#000000">numba</text>
</g>
<!-- numba&#45;&gt;dsbmm_bp_apply -->
<g id="edge6" class="edge">
<title>numba&#45;&gt;dsbmm_bp_apply</title><style>.edge>path:hover{stroke-width:8}</style>
<path fill="none" stroke="black" d="M1014.48,-239.66C1048.84,-225.25 1116.57,-196.83 1174.06,-172.64"/>
<path fill="none" stroke="black" d="M1174.06,-170.64C1186.92,-165.23 1186.83,-158.69 1198.06,-150.43 1215.31,-137.74 1235.38,-124.79 1251.99,-114.52"/>
<polygon fill="#05db3b" stroke="black" points="1254.12,-117.32 1260.83,-109.12 1250.47,-111.35 1254.12,-117.32"/>
</g>
<!-- numba&#45;&gt;dsbmm_bp_bp -->
<g id="edge7" class="edge">
<title>numba&#45;&gt;dsbmm_bp_bp</title><style>.edge>path:hover{stroke-width:8}</style>
<path fill="none" stroke="black" d="M965.48,-246.47C887.6,-238.67 661.03,-214.7 590.06,-192.85 549.33,-180.31 544.41,-164.17 504.06,-150.43 427.62,-124.4 335.12,-108.74 277.93,-100.78"/>
<polygon fill="#05db3b" stroke="black" points="278.05,-97.27 267.67,-99.39 277.11,-104.21 278.05,-97.27"/>
</g>
<!-- numba&#45;&gt;dsbmm_bp_bp_sparse -->
<g id="edge8" class="edge">
<title>numba&#45;&gt;dsbmm_bp_bp_sparse</title><style>.edge>path:hover{stroke-width:8}</style>
<path fill="none" stroke="black" d="M965.51,-246.48C871.48,-237.23 557.58,-205.73 514.06,-192.85 473.19,-180.76 468.8,-162.95 428.06,-150.43 316.97,-116.28 281.96,-141.99 169.06,-114.43 164.99,-113.43 160.8,-112.26 156.63,-110.98"/>
<polygon fill="#05db3b" stroke="black" points="157.59,-107.61 147,-107.85 155.43,-114.27 157.59,-107.61"/>
</g>
<!-- numba&#45;&gt;dsbmm_bp_dsbmm -->
<g id="edge9" class="edge">
<title>numba&#45;&gt;dsbmm_bp_dsbmm</title><style>.edge>path:hover{stroke-width:8}</style>
<path fill="none" stroke="black" d="M979.74,-234.01C964.66,-216.59 937.47,-188.3 908.06,-172.64"/>
<path fill="none" stroke="black" d="M908.06,-170.64C773.25,-98.87 717.88,-148.74 569.06,-114.43 562.84,-112.99 556.35,-111.31 549.95,-109.54"/>
<polygon fill="#05db3b" stroke="black" points="550.61,-106.09 540.04,-106.7 548.69,-112.82 550.61,-106.09"/>
</g>
<!-- numba&#45;&gt;dsbmm_bp_dsbmm_sparse -->
<g id="edge10" class="edge">
<title>numba&#45;&gt;dsbmm_bp_dsbmm_sparse</title><style>.edge>path:hover{stroke-width:8}</style>
<path fill="none" stroke="black" d="M908.06,-170.64C871.44,-151.14 729.11,-121.38 704.06,-114.43 699.66,-113.21 695.11,-111.91 690.55,-110.58"/>
<polygon fill="#05db3b" stroke="black" points="691.17,-107.12 680.59,-107.65 689.2,-113.83 691.17,-107.12"/>
</g>
<!-- numba&#45;&gt;dsbmm_bp_em -->
<g id="edge11" class="edge">
<title>numba&#45;&gt;dsbmm_bp_em</title><style>.edge>path:hover{stroke-width:8}</style>
<path fill="none" stroke="black" d="M1008.38,-235.58C1032.53,-215.89 1079.52,-178.55 1122.06,-150.43 1148.96,-132.64 1159.74,-134.4 1185.06,-114.43 1194.74,-106.79 1198.51,-105.22 1204.06,-94.21"/>
<path fill="none" stroke="black" d="M1204.06,-92.21C1210.52,-78.02 1210.79,-60.61 1209.32,-46.33"/>
<polygon fill="#05db3b" stroke="black" points="1212.74,-45.56 1207.92,-36.12 1205.81,-46.5 1212.74,-45.56"/>
</g>
<!-- numba&#45;&gt;dsbmm_bp_numba_bp_methods -->
<g id="edge12" class="edge">
<title>numba&#45;&gt;dsbmm_bp_numba_bp_methods</title><style>.edge>path:hover{stroke-width:8}</style>
<path fill="none" stroke="black" d="M984.06,-170.64C975.51,-150.24 958.56,-132.56 942.63,-119.36"/>
<polygon fill="#05db3b" stroke="black" points="944.46,-116.34 934.45,-112.87 940.11,-121.83 944.46,-116.34"/>
</g>
<!-- numba&#45;&gt;dsbmm_bp_numba_dsbmm_methods -->
<g id="edge13" class="edge">
<title>numba&#45;&gt;dsbmm_bp_numba_dsbmm_methods</title><style>.edge>path:hover{stroke-width:8}</style>
<path fill="none" stroke="black" d="M984.06,-170.64C973.47,-145.36 996.87,-126.72 1024.03,-114.18"/>
<polygon fill="#05db3b" stroke="black" points="1025.55,-117.34 1033.34,-110.16 1022.77,-110.92 1025.55,-117.34"/>
</g>
<!-- numba&#45;&gt;dsbmm_bp_simulation -->
<g id="edge14" class="edge">
<title>numba&#45;&gt;dsbmm_bp_simulation</title><style>.edge>path:hover{stroke-width:8}</style>
<path fill="none" stroke="black" d="M1174.06,-170.64C1262.33,-133.5 1290.29,-141.77 1382.06,-114.43 1386.96,-112.97 1392.05,-111.4 1397.12,-109.8"/>
<polygon fill="#05db3b" stroke="black" points="1398.32,-113.09 1406.78,-106.71 1396.19,-106.42 1398.32,-113.09"/>
</g>
<!-- numba&#45;&gt;dsbmm_bp_utils -->
<g id="edge15" class="edge">
<title>numba&#45;&gt;dsbmm_bp_utils</title><style>.edge>path:hover{stroke-width:8}</style>
<path fill="none" stroke="black" d="M993.04,-231.98C993.32,-216.02 992.11,-191.83 984.06,-172.64"/>
<path fill="none" stroke="black" d="M984.06,-170.64C962.47,-119.12 891.27,-135.04 823.06,-114.43 818.2,-112.96 813.14,-111.35 808.11,-109.7"/>
<polygon fill="#05db3b" stroke="black" points="809.15,-106.35 798.55,-106.5 806.93,-112.99 809.15,-106.35"/>
</g>
<!-- numba_experimental -->
<g id="node15" class="node">
<title>numba_experimental</title><style>.edge>path:hover{stroke-width:8}</style>
<ellipse fill="#0cf346" stroke="black" cx="442.06" cy="-328.49" rx="50.82" ry="21.43"/>
<text text-anchor="middle" x="442.06" y="-331.49" font-family="Helvetica,sans-Serif" font-size="10.00" fill="#000000">numba.</text>
<text text-anchor="middle" x="442.06" y="-320.49" font-family="Helvetica,sans-Serif" font-size="10.00" fill="#000000">experimental</text>
</g>
<!-- numba_experimental&#45;&gt;dsbmm_bp_bp -->
<g id="edge16" class="edge">
<title>numba_experimental&#45;&gt;dsbmm_bp_bp</title><style>.edge>path:hover{stroke-width:8}</style>
<path fill="none" stroke="black" d="M300.06,-170.64C288.72,-148.99 269.17,-129.53 252.73,-115.67"/>
<polygon fill="#0cf346" stroke="black" points="254.93,-112.94 244.97,-109.33 250.5,-118.36 254.93,-112.94"/>
<path fill="none" stroke="black" d="M393.19,-322.27C360.6,-315.96 320.02,-302.03 299.06,-271.28 274.38,-235.05 320.4,-211.48 300.06,-172.64"/>
</g>
<!-- numba_experimental&#45;&gt;dsbmm_bp_bp_sparse -->
<g id="edge17" class="edge">
<title>numba_experimental&#45;&gt;dsbmm_bp_bp_sparse</title><style>.edge>path:hover{stroke-width:8}</style>
<path fill="none" stroke="black" d="M398.99,-316.82C356.71,-305.05 291.54,-283.4 242.06,-251.07"/>
<path fill="none" stroke="black" d="M242.06,-249.07C215.96,-232.01 218.28,-218.17 200.06,-192.85 193.68,-183.98 193.71,-180.45 186.06,-172.64"/>
</g>
<!-- numba_experimental&#45;&gt;dsbmm_bp_dsbmm -->
<g id="edge18" class="edge">
<title>numba_experimental&#45;&gt;dsbmm_bp_dsbmm</title><style>.edge>path:hover{stroke-width:8}</style>
<path fill="none" stroke="black" d="M642.06,-249.07C664.39,-223.47 665.39,-197.33 642.06,-172.64"/>
<path fill="none" stroke="black" d="M490.58,-321.92C536.32,-314.06 603.45,-295.32 642.06,-251.07"/>
<path fill="none" stroke="black" d="M642.06,-170.64C616.18,-143.25 578.25,-123.46 548.25,-110.89"/>
<polygon fill="#0cf346" stroke="black" points="549.39,-107.58 538.81,-107.06 546.76,-114.06 549.39,-107.58"/>
</g>
<!-- numba_experimental&#45;&gt;dsbmm_bp_dsbmm_sparse -->
<g id="edge19" class="edge">
<title>numba_experimental&#45;&gt;dsbmm_bp_dsbmm_sparse</title><style>.edge>path:hover{stroke-width:8}</style>
<path fill="none" stroke="black" d="M642.06,-249.07C671.92,-214.85 660.22,-158.41 648.79,-123.94"/>
<polygon fill="#0cf346" stroke="black" points="652.06,-122.7 645.45,-114.42 645.46,-125.02 652.06,-122.7"/>
</g>
<!-- numba_experimental&#45;&gt;numba -->
<g id="edge20" class="edge">
<title>numba_experimental&#45;&gt;numba</title><style>.edge>path:hover{stroke-width:8}</style>
<path fill="none" stroke="black" d="M489.91,-320.84C598.1,-305.81 859.62,-269.47 955.79,-256.11"/>
<polygon fill="#0cf346" stroke="black" points="956.47,-259.55 965.89,-254.7 955.51,-252.61 956.47,-259.55"/>
</g>
<!-- numba_experimental_jitclass -->
<g id="node16" class="node">
<title>numba_experimental_jitclass</title><style>.edge>path:hover{stroke-width:8}</style>
<ellipse fill="#0bdf40" stroke="black" cx="442.06" cy="-414.7" rx="53.07" ry="28.98"/>
<text text-anchor="middle" x="442.06" y="-423.2" font-family="Helvetica,sans-Serif" font-size="10.00" fill="#000000">numba.</text>
<text text-anchor="middle" x="442.06" y="-412.2" font-family="Helvetica,sans-Serif" font-size="10.00" fill="#000000">experimental.</text>
<text text-anchor="middle" x="442.06" y="-401.2" font-family="Helvetica,sans-Serif" font-size="10.00" fill="#000000">jitclass</text>
</g>
<!-- numba_experimental_jitclass&#45;&gt;dsbmm_bp_bp -->
<g id="edge21" class="edge">
<title>numba_experimental_jitclass&#45;&gt;dsbmm_bp_bp</title><style>.edge>path:hover{stroke-width:8}</style>
<path fill="none" stroke="black" d="M148.06,-170.64C149.72,-146.19 169.57,-126.76 188.56,-113.61"/>
<polygon fill="#0bdf40" stroke="black" points="190.69,-116.4 197.16,-108.01 186.87,-110.53 190.69,-116.4"/>
</g>
<!-- numba_experimental_jitclass&#45;&gt;dsbmm_bp_bp_sparse -->
<g id="edge22" class="edge">
<title>numba_experimental_jitclass&#45;&gt;dsbmm_bp_bp_sparse</title><style>.edge>path:hover{stroke-width:8}</style>
<path fill="none" stroke="black" d="M148.06,-170.64C149.23,-153.47 141.77,-135.99 133.34,-122.09"/>
<polygon fill="#0bdf40" stroke="black" points="136.14,-119.97 127.74,-113.51 130.27,-123.8 136.14,-119.97"/>
<path fill="none" stroke="black" d="M390.14,-408.51C310.57,-399.1 167.44,-375.75 166.06,-329.49"/>
<path fill="none" stroke="black" d="M166.06,-327.49C164,-258.24 143.37,-241.77 148.06,-172.64"/>
</g>
<!-- numba_experimental_jitclass&#45;&gt;dsbmm_bp_dsbmm -->
<g id="edge23" class="edge">
<title>numba_experimental_jitclass&#45;&gt;dsbmm_bp_dsbmm</title><style>.edge>path:hover{stroke-width:8}</style>
<path fill="none" stroke="black" d="M166.06,-327.49C163.82,-233.57 523.21,-341.99 585.06,-271.28 597.48,-257.09 593.04,-245.94 585.06,-228.85 574.52,-206.27 558.86,-211.26 542.06,-192.85 534.7,-184.78 532.74,-182.51 528.06,-172.64"/>
</g>
<!-- numba_experimental_jitclass&#45;&gt;dsbmm_bp_dsbmm_sparse -->
<g id="edge24" class="edge">
<title>numba_experimental_jitclass&#45;&gt;dsbmm_bp_dsbmm_sparse</title><style>.edge>path:hover{stroke-width:8}</style>
<path fill="none" stroke="black" d="M756.06,-170.64C747.91,-140.99 719.25,-122.06 692.11,-110.46"/>
<polygon fill="#0bdf40" stroke="black" points="693.19,-107.12 682.6,-106.65 690.59,-113.62 693.19,-107.12"/>
<path fill="none" stroke="black" d="M480.87,-394.81C568.84,-350.69 774.45,-239.48 756.06,-172.64"/>
</g>
<!-- numba_experimental_jitclass&#45;&gt;numba_experimental -->
<g id="edge25" class="edge">
<title>numba_experimental_jitclass&#45;&gt;numba_experimental</title><style>.edge>path:hover{stroke-width:8}</style>
<path fill="none" stroke="black" d="M442.06,-385.66C442.06,-377.45 442.06,-368.44 442.06,-360.08"/>
<polygon fill="#0bdf40" stroke="black" points="445.56,-359.95 442.06,-349.95 438.56,-359.95 445.56,-359.95"/>
</g>
<!-- numba_typed -->
<g id="node17" class="node">
<title>numba_typed</title><style>.edge>path:hover{stroke-width:8}</style>
<ellipse fill="#10f94a" stroke="black" cx="789.06" cy="-328.49" rx="42.94" ry="18"/>
<text text-anchor="middle" x="789.06" y="-325.99" font-family="Helvetica,sans-Serif" font-size="10.00" fill="#000000">numba.typed</text>
</g>
<!-- numba_typed&#45;&gt;dsbmm_bp_apply -->
<g id="edge26" class="edge">
<title>numba_typed&#45;&gt;dsbmm_bp_apply</title><style>.edge>path:hover{stroke-width:8}</style>
<path fill="none" stroke="black" d="M832.02,-327.93C895.98,-326.89 1018.4,-318.23 1109.06,-271.28 1180.29,-234.39 1240.81,-158.67 1269.04,-119.28"/>
<polygon fill="#10f94a" stroke="black" points="1271.98,-121.18 1274.88,-110.99 1266.26,-117.15 1271.98,-121.18"/>
</g>
<!-- numba_typed&#45;&gt;dsbmm_bp_bp -->
<g id="edge27" class="edge">
<title>numba_typed&#45;&gt;dsbmm_bp_bp</title><style>.edge>path:hover{stroke-width:8}</style>
<path fill="none" stroke="black" d="M758.96,-315.44C750.38,-312.39 740.95,-309.38 732.06,-307.28 605.23,-277.32 556.55,-331.66 441.06,-271.28 418.63,-259.55 421.03,-246.68 403.06,-228.85 365.63,-191.72 356.34,-181.93 314.06,-150.43 296.2,-137.12 275.13,-123.84 257.87,-113.53"/>
<polygon fill="#10f94a" stroke="black" points="259.62,-110.5 249.23,-108.43 256.06,-116.53 259.62,-110.5"/>
</g>
<!-- numba_typed&#45;&gt;dsbmm_bp_bp_sparse -->
<g id="edge28" class="edge">
<title>numba_typed&#45;&gt;dsbmm_bp_bp_sparse</title><style>.edge>path:hover{stroke-width:8}</style>
<path fill="none" stroke="black" d="M759.31,-315.31C750.65,-312.22 741.1,-309.22 732.06,-307.28 624.91,-284.23 333.81,-311.02 242.06,-251.07"/>
</g>
<!-- numba_typed&#45;&gt;dsbmm_bp_dsbmm -->
<g id="edge29" class="edge">
<title>numba_typed&#45;&gt;dsbmm_bp_dsbmm</title><style>.edge>path:hover{stroke-width:8}</style>
<path fill="none" stroke="black" d="M756.06,-249.07C736.54,-189.77 708.85,-183.76 656.06,-150.43 638.12,-139.1 588.98,-122.04 550.79,-109.68"/>
<polygon fill="#10f94a" stroke="black" points="551.43,-106.22 540.84,-106.49 549.3,-112.88 551.43,-106.22"/>
<path fill="none" stroke="black" d="M781.66,-310.52C774.93,-295.05 764.75,-271.56 756.06,-251.07"/>
</g>
<!-- numba_typed&#45;&gt;dsbmm_bp_dsbmm_sparse -->
<g id="edge30" class="edge">
<title>numba_typed&#45;&gt;dsbmm_bp_dsbmm_sparse</title><style>.edge>path:hover{stroke-width:8}</style>
<path fill="none" stroke="black" d="M756.06,-249.07C745.44,-216.8 765.07,-205.39 756.06,-172.64"/>
</g>
<!-- numba_typed&#45;&gt;dsbmm_bp_em -->
<g id="edge31" class="edge">
<title>numba_typed&#45;&gt;dsbmm_bp_em</title><style>.edge>path:hover{stroke-width:8}</style>
<path fill="none" stroke="black" d="M831.3,-324.57C881.12,-319.59 965.12,-306.32 1028.06,-271.28 1125.01,-217.31 1158.11,-195.21 1204.06,-94.21"/>
</g>
<!-- numba_typed&#45;&gt;dsbmm_bp_utils -->
<g id="edge32" class="edge">
<title>numba_typed&#45;&gt;dsbmm_bp_utils</title><style>.edge>path:hover{stroke-width:8}</style>
<path fill="none" stroke="black" d="M796.37,-310.64C800.72,-299.66 805.82,-284.9 808.06,-271.28 816.78,-218.28 825.57,-201.2 808.06,-150.43 804,-138.65 796.34,-127.45 788.54,-118.19"/>
<polygon fill="#10f94a" stroke="black" points="791.01,-115.7 781.73,-110.59 785.8,-120.38 791.01,-115.7"/>
</g>
<!-- numba_typed&#45;&gt;numba -->
<g id="edge33" class="edge">
<title>numba_typed&#45;&gt;numba</title><style>.edge>path:hover{stroke-width:8}</style>
<path fill="none" stroke="black" d="M822.72,-317.16C855.8,-306.69 907.53,-289.48 951.06,-271.28 954.75,-269.74 958.57,-268.02 962.33,-266.26"/>
<polygon fill="#10f94a" stroke="black" points="963.96,-269.36 971.44,-261.86 960.91,-263.06 963.96,-269.36"/>
</g>
<!-- numba_types -->
<g id="node18" class="node">
<title>numba_types</title><style>.edge>path:hover{stroke-width:8}</style>
<ellipse fill="#26d953" stroke="black" cx="351.06" cy="-250.07" rx="42.94" ry="18"/>
<text text-anchor="middle" x="351.06" y="-247.57" font-family="Helvetica,sans-Serif" font-size="10.00" fill="#000000">numba.types</text>
</g>
<!-- numba_types&#45;&gt;dsbmm_bp_bp -->
<g id="edge34" class="edge">
<title>numba_types&#45;&gt;dsbmm_bp_bp</title><style>.edge>path:hover{stroke-width:8}</style>
<path fill="none" stroke="black" d="M338.65,-232.7C327.6,-217.64 311.46,-194.4 300.06,-172.64"/>
</g>
<!-- numba_types&#45;&gt;dsbmm_bp_bp_sparse -->
<g id="edge35" class="edge">
<title>numba_types&#45;&gt;dsbmm_bp_bp_sparse</title><style>.edge>path:hover{stroke-width:8}</style>
<path fill="none" stroke="black" d="M314.79,-240.4C278.06,-229.95 221.73,-209.07 186.06,-172.64"/>
</g>
<!-- numba_types&#45;&gt;dsbmm_bp_dsbmm -->
<g id="edge36" class="edge">
<title>numba_types&#45;&gt;dsbmm_bp_dsbmm</title><style>.edge>path:hover{stroke-width:8}</style>
<path fill="none" stroke="black" d="M366.55,-233.08C393.02,-205.75 447.1,-149.92 478.02,-118"/>
<polygon fill="#26d953" stroke="black" points="480.54,-120.43 484.98,-110.82 475.51,-115.56 480.54,-120.43"/>
</g>
<!-- numba_types&#45;&gt;dsbmm_bp_dsbmm_sparse -->
<g id="edge37" class="edge">
<title>numba_types&#45;&gt;dsbmm_bp_dsbmm_sparse</title><style>.edge>path:hover{stroke-width:8}</style>
<path fill="none" stroke="black" d="M604.06,-170.64C616.01,-157.47 624.1,-139.3 629.27,-123.98"/>
<polygon fill="#26d953" stroke="black" points="632.62,-125 632.27,-114.41 625.94,-122.91 632.62,-125"/>
<path fill="none" stroke="black" d="M387.3,-240.31C453.65,-223.97 589.23,-189 604.06,-172.64"/>
</g>
<!-- numpy -->
<g id="node19" class="node">
<title>numpy</title><style>.edge>path:hover{stroke-width:8}</style>
<ellipse fill="#06f9f9" stroke="black" cx="1155.06" cy="-414.7" rx="27.16" ry="18"/>
<text text-anchor="middle" x="1155.06" y="-412.2" font-family="Helvetica,sans-Serif" font-size="10.00" fill="#000000">numpy</text>
</g>
<!-- numpy&#45;&gt;dsbmm_bp_apply -->
<g id="edge38" class="edge">
<title>numpy&#45;&gt;dsbmm_bp_apply</title><style>.edge>path:hover{stroke-width:8}</style>
<path fill="none" stroke="black" d="M1180.61,-408.64C1234.48,-397.57 1363.2,-369.02 1466.06,-329.49"/>
<path fill="none" stroke="black" d="M1466.06,-327.49C1546.43,-296.61 1316.85,-332.21 1288.06,-251.07"/>
</g>
<!-- numpy&#45;&gt;dsbmm_bp_bp -->
<g id="edge39" class="edge">
<title>numpy&#45;&gt;dsbmm_bp_bp</title><style>.edge>path:hover{stroke-width:8}</style>
<path fill="none" stroke="black" d="M204.06,-249.07C204.35,-203.96 212.71,-152.08 218.53,-121.28"/>
<polygon fill="#06f9f9" stroke="black" points="222,-121.79 220.47,-111.31 215.13,-120.46 222,-121.79"/>
</g>
<!-- numpy&#45;&gt;dsbmm_bp_bp_sparse -->
<g id="edge40" class="edge">
<title>numpy&#45;&gt;dsbmm_bp_bp_sparse</title><style>.edge>path:hover{stroke-width:8}</style>
<path fill="none" stroke="black" d="M204.06,-249.07C202.84,-214.19 210.48,-197.58 186.06,-172.64"/>
<path fill="none" stroke="black" d="M186.06,-170.64C169.78,-154.01 151.59,-135.23 137.32,-120.45"/>
<polygon fill="#06f9f9" stroke="black" points="139.71,-117.88 130.25,-113.11 134.67,-122.74 139.71,-117.88"/>
<path fill="none" stroke="black" d="M1127.85,-412.85C1008.01,-408.92 526.82,-390.83 382.06,-349.71 295.06,-324.99 207.23,-341.46 204.06,-251.07"/>
</g>
<!-- numpy&#45;&gt;dsbmm_bp_dsbmm -->
<g id="edge41" class="edge">
<title>numpy&#45;&gt;dsbmm_bp_dsbmm</title><style>.edge>path:hover{stroke-width:8}</style>
<path fill="none" stroke="black" d="M1128.08,-411.86C1046.83,-405.99 805.86,-385.88 737.06,-349.71 726.15,-343.97 725.05,-339.65 718.06,-329.49"/>
<path fill="none" stroke="black" d="M718.06,-327.49C696.33,-295.92 668.39,-200.5 642.06,-172.64"/>
</g>
<!-- numpy&#45;&gt;dsbmm_bp_dsbmm_sparse -->
<g id="edge42" class="edge">
<title>numpy&#45;&gt;dsbmm_bp_dsbmm_sparse</title><style>.edge>path:hover{stroke-width:8}</style>
<path fill="none" stroke="black" d="M1159.72,-396.92C1163.71,-378.96 1167.09,-350.23 1155.06,-329.49"/>
<path fill="none" stroke="black" d="M1155.06,-327.49C1108.96,-247.98 1039.76,-309.24 956.06,-271.28 866.28,-230.56 857.14,-196.65 770.06,-150.43 743.16,-136.15 711.85,-122.76 686.36,-112.64"/>
<polygon fill="#06f9f9" stroke="black" points="687.48,-109.32 676.9,-108.92 684.93,-115.83 687.48,-109.32"/>
</g>
<!-- numpy&#45;&gt;dsbmm_bp_em -->
<g id="edge43" class="edge">
<title>numpy&#45;&gt;dsbmm_bp_em</title><style>.edge>path:hover{stroke-width:8}</style>
<path fill="none" stroke="black" d="M1466.06,-327.49C1553.87,-294.09 1823.21,-341.99 1885.06,-271.28 1897.48,-257.09 1892.02,-246.38 1885.06,-228.85 1872.39,-196.94 1822.23,-205.54 1832.06,-172.64"/>
</g>
<!-- numpy&#45;&gt;dsbmm_bp_numba_dsbmm_methods -->
<g id="edge44" class="edge">
<title>numpy&#45;&gt;dsbmm_bp_numba_dsbmm_methods</title><style>.edge>path:hover{stroke-width:8}</style>
<path fill="none" stroke="black" d="M1155.06,-327.49C1120.94,-255.08 1228.63,-219.44 1188.06,-150.43 1179.01,-135.03 1164.04,-123.54 1148.36,-115.1"/>
<polygon fill="#06f9f9" stroke="black" points="1149.6,-111.81 1139.08,-110.48 1146.48,-118.08 1149.6,-111.81"/>
</g>
<!-- numpy&#45;&gt;dsbmm_bp_simulation -->
<g id="edge45" class="edge">
<title>numpy&#45;&gt;dsbmm_bp_simulation</title><style>.edge>path:hover{stroke-width:8}</style>
<path fill="none" stroke="black" d="M1531.06,-170.64C1513.38,-152.17 1491.79,-133.19 1474.54,-118.76"/>
<polygon fill="#06f9f9" stroke="black" points="1476.4,-115.75 1466.46,-112.07 1471.93,-121.14 1476.4,-115.75"/>
<path fill="none" stroke="black" d="M1466.06,-327.49C1507.74,-311.48 1466.12,-269.28 1485.06,-228.85 1498.76,-199.62 1553.39,-195.96 1531.06,-172.64"/>
</g>
<!-- numpy&#45;&gt;dsbmm_bp_utils -->
<g id="edge46" class="edge">
<title>numpy&#45;&gt;dsbmm_bp_utils</title><style>.edge>path:hover{stroke-width:8}</style>
<path fill="none" stroke="black" d="M718.06,-327.49C710.91,-313.14 767.12,-208.62 770.06,-192.85 774.51,-168.98 772.21,-141.35 769.26,-121.41"/>
<polygon fill="#06f9f9" stroke="black" points="772.7,-120.78 767.64,-111.48 765.79,-121.91 772.7,-120.78"/>
</g>
<!-- numpy&#45;&gt;matplotlib -->
<g id="edge47" class="edge">
<title>numpy&#45;&gt;matplotlib</title><style>.edge>path:hover{stroke-width:8}</style>
<path fill="none" stroke="black" d="M1466.06,-327.49C1517.68,-307.66 1533.19,-304.95 1577.06,-271.28 1597.14,-255.87 1594.1,-243.05 1615.06,-228.85 1649.51,-205.53 1694.83,-190.51 1727.38,-181.92"/>
<polygon fill="#06f9f9" stroke="black" points="1728.63,-185.21 1737.46,-179.35 1726.91,-178.43 1728.63,-185.21"/>
</g>
<!-- numpy&#45;&gt;matplotlib_pyplot -->
<g id="edge48" class="edge">
<title>numpy&#45;&gt;matplotlib_pyplot</title><style>.edge>path:hover{stroke-width:8}</style>
<path fill="none" stroke="black" d="M1466.06,-327.49C1598,-276.8 1642.88,-309.12 1779.06,-271.28 1782.64,-270.28 1786.32,-269.14 1789.98,-267.92"/>
<polygon fill="#06f9f9" stroke="black" points="1791.31,-271.16 1799.59,-264.54 1788.99,-264.56 1791.31,-271.16"/>
</g>
<!-- scipy -->
<g id="node20" class="node">
<title>scipy</title><style>.edge>path:hover{stroke-width:8}</style>
<ellipse fill="#0640ef" stroke="black" cx="1210.06" cy="-328.49" rx="27" ry="18"/>
<text text-anchor="middle" x="1210.06" y="-325.99" font-family="Helvetica,sans-Serif" font-size="10.00" fill="#ffffff">scipy</text>
</g>
<!-- numpy&#45;&gt;scipy -->
<g id="edge49" class="edge">
<title>numpy&#45;&gt;scipy</title><style>.edge>path:hover{stroke-width:8}</style>
<path fill="none" stroke="black" d="M1165.41,-397.86C1173.47,-385.51 1184.82,-368.14 1194.05,-354"/>
<polygon fill="#06f9f9" stroke="black" points="1197.23,-355.55 1199.76,-345.26 1191.36,-351.72 1197.23,-355.55"/>
</g>
<!-- sklearn -->
<g id="node23" class="node">
<title>sklearn</title><style>.edge>path:hover{stroke-width:8}</style>
<ellipse fill="#7a24d0" stroke="black" cx="1652.06" cy="-250.07" rx="28.01" ry="18"/>
<text text-anchor="middle" x="1652.06" y="-247.57" font-family="Helvetica,sans-Serif" font-size="10.00" fill="#ffffff">sklearn</text>
</g>
<!-- numpy&#45;&gt;sklearn -->
<g id="edge50" class="edge">
<title>numpy&#45;&gt;sklearn</title><style>.edge>path:hover{stroke-width:8}</style>
<path fill="none" stroke="black" d="M1466.06,-327.49C1530.19,-302.85 1547.06,-298.69 1610.06,-271.28 1613.71,-269.69 1617.51,-267.97 1621.27,-266.21"/>
<polygon fill="#06f9f9" stroke="black" points="1622.88,-269.33 1630.41,-261.88 1619.88,-263 1622.88,-269.33"/>
</g>
<!-- scipy&#45;&gt;dsbmm_bp_apply -->
<g id="edge51" class="edge">
<title>scipy&#45;&gt;dsbmm_bp_apply</title><style>.edge>path:hover{stroke-width:8}</style>
<path fill="none" stroke="black" d="M1288.06,-249.07C1275.47,-205.89 1278.48,-153.02 1282.08,-121.56"/>
<polygon fill="#0640ef" stroke="black" points="1285.58,-121.74 1283.35,-111.38 1278.64,-120.87 1285.58,-121.74"/>
<path fill="none" stroke="black" d="M1232.8,-318.35C1259.55,-306.01 1299.03,-281.98 1288.06,-251.07"/>
</g>
<!-- scipy&#45;&gt;dsbmm_bp_dsbmm_sparse -->
<g id="edge52" class="edge">
<title>scipy&#45;&gt;dsbmm_bp_dsbmm_sparse</title><style>.edge>path:hover{stroke-width:8}</style>
<path fill="none" stroke="black" d="M1191.92,-315.12C1159.3,-292.51 1089.19,-242.29 1036.06,-192.85 1017.53,-175.61 1020.5,-162.14 998.06,-150.43 881.36,-89.51 832.88,-141.54 704.06,-114.43 699.14,-113.39 694.05,-112.16 688.98,-110.82"/>
<polygon fill="#0640ef" stroke="black" points="689.88,-107.44 679.31,-108.15 688.02,-114.19 689.88,-107.44"/>
</g>
<!-- scipy&#45;&gt;dsbmm_bp_em -->
<g id="edge53" class="edge">
<title>scipy&#45;&gt;dsbmm_bp_em</title><style>.edge>path:hover{stroke-width:8}</style>
<path fill="none" stroke="black" d="M1428.06,-170.64C1426.59,-159.94 1375.45,-102.09 1368.06,-94.21"/>
<path fill="none" stroke="black" d="M1237.13,-328.21C1280.22,-327.77 1364.14,-320.2 1409.06,-271.28 1439.26,-238.4 1434.15,-216.87 1428.06,-172.64"/>
</g>
<!-- scipy&#45;&gt;dsbmm_bp_simulation -->
<g id="edge54" class="edge">
<title>scipy&#45;&gt;dsbmm_bp_simulation</title><style>.edge>path:hover{stroke-width:8}</style>
<path fill="none" stroke="black" d="M1428.06,-170.64C1425.92,-155.08 1429,-137.95 1433,-123.85"/>
<polygon fill="#0640ef" stroke="black" points="1436.38,-124.78 1436.03,-114.19 1429.7,-122.69 1436.38,-124.78"/>
</g>
<!-- scipy&#45;&gt;numba -->
<g id="edge55" class="edge">
<title>scipy&#45;&gt;numba</title><style>.edge>path:hover{stroke-width:8}</style>
<path fill="none" stroke="black" d="M1189.48,-316.59C1183.04,-313.38 1175.84,-310.01 1169.06,-307.28 1120.74,-287.82 1062.92,-270.54 1026.83,-260.43"/>
<polygon fill="#0640ef" stroke="black" points="1027.38,-256.95 1016.81,-257.65 1025.51,-263.7 1027.38,-256.95"/>
</g>
<!-- scipy_sparse -->
<g id="node21" class="node">
<title>scipy_sparse</title><style>.edge>path:hover{stroke-width:8}</style>
<ellipse fill="#1849dd" stroke="black" cx="1358.06" cy="-250.07" rx="41.59" ry="18"/>
<text text-anchor="middle" x="1358.06" y="-247.57" font-family="Helvetica,sans-Serif" font-size="10.00" fill="#ffffff">scipy.sparse</text>
</g>
<!-- scipy_sparse&#45;&gt;dsbmm_bp_apply -->
<g id="edge56" class="edge">
<title>scipy_sparse&#45;&gt;dsbmm_bp_apply</title><style>.edge>path:hover{stroke-width:8}</style>
<path fill="none" stroke="black" d="M1368.06,-170.64C1369.35,-145.19 1347.87,-125.78 1326.57,-112.88"/>
<polygon fill="#1849dd" stroke="black" points="1328.26,-109.82 1317.83,-107.93 1324.8,-115.91 1328.26,-109.82"/>
<path fill="none" stroke="black" d="M1361.11,-231.84C1363.66,-216.39 1367.03,-193.09 1368.06,-172.64"/>
</g>
<!-- scipy_sparse&#45;&gt;dsbmm_bp_dsbmm_sparse -->
<g id="edge57" class="edge">
<title>scipy_sparse&#45;&gt;dsbmm_bp_dsbmm_sparse</title><style>.edge>path:hover{stroke-width:8}</style>
<path fill="none" stroke="black" d="M1327.48,-237.56C1270.85,-216.75 1145.45,-172.9 1036.06,-150.43 890.68,-120.56 849.51,-143.99 704.06,-114.43 699.06,-113.41 693.89,-112.18 688.74,-110.84"/>
<polygon fill="#1849dd" stroke="black" points="689.5,-107.42 678.93,-108.14 687.65,-114.17 689.5,-107.42"/>
</g>
<!-- scipy_sparse&#45;&gt;dsbmm_bp_em -->
<g id="edge58" class="edge">
<title>scipy_sparse&#45;&gt;dsbmm_bp_em</title><style>.edge>path:hover{stroke-width:8}</style>
<path fill="none" stroke="black" d="M1368.06,-170.64C1369.78,-136.72 1391.29,-119 1368.06,-94.21"/>
<path fill="none" stroke="black" d="M1368.06,-92.21C1359.63,-83.22 1359.35,-78.79 1349.06,-72 1319.82,-52.7 1282.63,-39.29 1253.24,-30.79"/>
<polygon fill="#1849dd" stroke="black" points="1254.17,-27.41 1243.59,-28.09 1252.28,-34.16 1254.17,-27.41"/>
</g>
<!-- scipy_sparse&#45;&gt;dsbmm_bp_simulation -->
<g id="edge59" class="edge">
<title>scipy_sparse&#45;&gt;dsbmm_bp_simulation</title><style>.edge>path:hover{stroke-width:8}</style>
<path fill="none" stroke="black" d="M1368.06,-170.64C1369.25,-147.3 1387.36,-128.55 1405.6,-115.46"/>
<polygon fill="#1849dd" stroke="black" points="1407.6,-118.34 1413.93,-109.85 1403.68,-112.53 1407.6,-118.34"/>
</g>
<!-- scipy_stats -->
<g id="node22" class="node">
<title>scipy_stats</title><style>.edge>path:hover{stroke-width:8}</style>
<ellipse fill="#3d5cb8" stroke="black" cx="1531.06" cy="-250.07" rx="37.17" ry="18"/>
<text text-anchor="middle" x="1531.06" y="-247.57" font-family="Helvetica,sans-Serif" font-size="10.00" fill="#ffffff">scipy.stats</text>
</g>
<!-- scipy_stats&#45;&gt;dsbmm_bp_simulation -->
<g id="edge60" class="edge">
<title>scipy_stats&#45;&gt;dsbmm_bp_simulation</title><style>.edge>path:hover{stroke-width:8}</style>
<path fill="none" stroke="black" d="M1537.08,-232C1541.98,-214.65 1545.93,-188.17 1531.06,-172.64"/>
</g>
<!-- sklearn&#45;&gt;dsbmm_bp_em -->
<g id="edge61" class="edge">
<title>sklearn&#45;&gt;dsbmm_bp_em</title><style>.edge>path:hover{stroke-width:8}</style>
<path fill="none" stroke="black" d="M1672.03,-237.13C1677.44,-234.18 1683.38,-231.2 1689.06,-228.85 1752.19,-202.81 1812.5,-238.07 1832.06,-172.64"/>
<path fill="none" stroke="black" d="M1832.06,-170.64C1841.79,-138.1 1849.38,-123.44 1832.06,-94.21"/>
</g>
<!-- sklearn&#45;&gt;dsbmm_bp_simulation -->
<g id="edge62" class="edge">
<title>sklearn&#45;&gt;dsbmm_bp_simulation</title><style>.edge>path:hover{stroke-width:8}</style>
<path fill="none" stroke="black" d="M1629.23,-238.87C1603.02,-226.28 1559.93,-202.79 1531.06,-172.64"/>
</g>
<!-- sklearn_cluster -->
<g id="node24" class="node">
<title>sklearn_cluster</title><style>.edge>path:hover{stroke-width:8}</style>
<ellipse fill="#8553b6" stroke="black" cx="36.06" cy="-171.64" rx="36.12" ry="21.43"/>
<text text-anchor="middle" x="36.06" y="-174.64" font-family="Helvetica,sans-Serif" font-size="10.00" fill="#ffffff">sklearn.</text>
<text text-anchor="middle" x="36.06" y="-163.64" font-family="Helvetica,sans-Serif" font-size="10.00" fill="#ffffff">cluster</text>
</g>
<!-- sklearn_cluster&#45;&gt;dsbmm_bp_em -->
<g id="edge63" class="edge">
<title>sklearn_cluster&#45;&gt;dsbmm_bp_em</title><style>.edge>path:hover{stroke-width:8}</style>
<path fill="none" stroke="black" d="M33.4,-150.48C31.65,-127.66 32.91,-91.17 55.06,-72 96.68,-35.99 918.93,-22.69 1146.26,-19.7"/>
<polygon fill="#8553b6" stroke="black" points="1146.37,-23.2 1156.32,-19.57 1146.27,-16.2 1146.37,-23.2"/>
</g>
<!-- sklearn_metrics -->
<g id="node25" class="node">
<title>sklearn_metrics</title><style>.edge>path:hover{stroke-width:8}</style>
<ellipse fill="#7a31c4" stroke="black" cx="1734.06" cy="-250.07" rx="36.12" ry="21.43"/>
<text text-anchor="middle" x="1734.06" y="-253.07" font-family="Helvetica,sans-Serif" font-size="10.00" fill="#ffffff">sklearn.</text>
<text text-anchor="middle" x="1734.06" y="-242.07" font-family="Helvetica,sans-Serif" font-size="10.00" fill="#ffffff">metrics</text>
</g>
<!-- sklearn_metrics&#45;&gt;dsbmm_bp_em -->
<g id="edge64" class="edge">
<title>sklearn_metrics&#45;&gt;dsbmm_bp_em</title><style>.edge>path:hover{stroke-width:8}</style>
<path fill="none" stroke="black" d="M1759,-234.34C1786.29,-217.49 1826.87,-190 1832.06,-172.64"/>
</g>
<!-- sklearn_metrics&#45;&gt;dsbmm_bp_simulation -->
<g id="edge65" class="edge">
<title>sklearn_metrics&#45;&gt;dsbmm_bp_simulation</title><style>.edge>path:hover{stroke-width:8}</style>
<path fill="none" stroke="black" d="M1706.13,-236.1C1700.51,-233.61 1694.63,-231.09 1689.06,-228.85 1619.9,-201.07 1582.61,-226.48 1531.06,-172.64"/>
</g>
<!-- yaml -->
<g id="node26" class="node">
<title>yaml</title><style>.edge>path:hover{stroke-width:8}</style>
<ellipse fill="#f316bc" stroke="black" cx="549.06" cy="-250.07" rx="27" ry="18"/>
<text text-anchor="middle" x="549.06" y="-247.57" font-family="Helvetica,sans-Serif" font-size="10.00" fill="#ffffff">yaml</text>
</g>
<!-- yaml&#45;&gt;dsbmm_bp_bp -->
<g id="edge66" class="edge">
<title>yaml&#45;&gt;dsbmm_bp_bp</title><style>.edge>path:hover{stroke-width:8}</style>
<path fill="none" stroke="black" d="M529.04,-237.8C492.11,-216.99 416.73,-174.5 414.06,-172.64"/>
<path fill="none" stroke="black" d="M414.06,-170.64C402.62,-162.67 402.21,-157.27 390.06,-150.43 353.03,-129.55 306.98,-114.72 272.78,-105.55"/>
<polygon fill="#f316bc" stroke="black" points="273.58,-102.14 263.02,-103 271.81,-108.92 273.58,-102.14"/>
</g>
<!-- yaml&#45;&gt;dsbmm_bp_bp_sparse -->
<g id="edge67" class="edge">
<title>yaml&#45;&gt;dsbmm_bp_bp_sparse</title><style>.edge>path:hover{stroke-width:8}</style>
<path fill="none" stroke="black" d="M529.62,-237.2C524.36,-234.25 518.58,-231.25 513.06,-228.85 464.72,-207.84 450.13,-209.33 400.06,-192.85 297.07,-158.97 271.49,-149.97 169.06,-114.43 165.53,-113.2 161.88,-111.93 158.21,-110.64"/>
<polygon fill="#f316bc" stroke="black" points="159.12,-107.25 148.53,-107.23 156.79,-113.85 159.12,-107.25"/>
</g>
<!-- yaml&#45;&gt;dsbmm_bp_dsbmm -->
<g id="edge68" class="edge">
<title>yaml&#45;&gt;dsbmm_bp_dsbmm</title><style>.edge>path:hover{stroke-width:8}</style>
<path fill="none" stroke="black" d="M546.16,-232.07C543.04,-216.17 537.26,-192.04 528.06,-172.64"/>
<path fill="none" stroke="black" d="M528.06,-170.64C520.47,-154.63 513.81,-135.87 509.01,-120.95"/>
<polygon fill="#f316bc" stroke="black" points="512.32,-119.81 505.99,-111.31 505.64,-121.9 512.32,-119.81"/>
</g>
<!-- yaml&#45;&gt;dsbmm_bp_dsbmm_sparse -->
<g id="edge69" class="edge">
<title>yaml&#45;&gt;dsbmm_bp_dsbmm_sparse</title><style>.edge>path:hover{stroke-width:8}</style>
<path fill="none" stroke="black" d="M559.05,-233.06C569.4,-217.02 586.49,-192.01 604.06,-172.64"/>
</g>
<!-- yaml&#45;&gt;dsbmm_bp_em -->
<g id="edge70" class="edge">
<title>yaml&#45;&gt;dsbmm_bp_em</title><style>.edge>path:hover{stroke-width:8}</style>
<path fill="none" stroke="black" d="M414.06,-170.64C377.42,-145.13 399.63,-101.59 433.06,-72 486.1,-25.05 976.32,-19.49 1146.33,-18.99"/>
<polygon fill="#f316bc" stroke="black" points="1146.35,-22.49 1156.34,-18.96 1146.33,-15.49 1146.35,-22.49"/>
</g>
<!-- yaml&#45;&gt;dsbmm_bp_numba_dsbmm_methods -->
<g id="edge71" class="edge">
<title>yaml&#45;&gt;dsbmm_bp_numba_dsbmm_methods</title><style>.edge>path:hover{stroke-width:8}</style>
<path fill="none" stroke="black" d="M573.97,-242.68C589.52,-238.7 609.95,-233.47 628.06,-228.85 691.16,-212.78 707.65,-211.41 770.06,-192.85 825.89,-176.25 838.53,-168 894.06,-150.43 936.21,-137.09 983.91,-123.18 1021.34,-112.54"/>
<polygon fill="#f316bc" stroke="black" points="1022.45,-115.86 1031.11,-109.77 1020.54,-109.13 1022.45,-115.86"/>
</g>
</g>
</svg>
